<svg xmlns="http://www.w3.org/2000/svg" viewBox="0 0 106.01 121.06"><defs><style>.cls-2{fill:#00e200;fill-rule:evenodd}</style></defs><g id="Layer_1"><path d="M62.64 36.72 51.27 48.09c-.41.41-1.06.41-1.47 0l-4.56-4.56c-.63-.63-1.64-.63-2.26 0s-.63 1.64 0 2.26l6.43 6.43c.63.62 1.64.62 2.26 0l13.24-13.24c.62-.63.62-1.63 0-2.26-.63-.62-1.63-.62-2.26 0Z" style="fill-rule:evenodd;fill:#0f0"/><path class="cls-2" d="M64.9 36.71v.01h.01l-.01-.01z"/><path d="M68.47 29.93c-8.03-8.03-21.05-8.03-29.08 0-8.03 8.03-8.03 21.05 0 29.08 8.03 8.03 21.05 8.03 29.08 0 3.86-3.86 6.02-9.09 6.02-14.54 0-5.45-2.16-10.69-6.02-14.54Zm-2.1 10.52L53.13 53.69a3.688 3.688 0 0 1-5.2 0l-6.43-6.43a3.67 3.67 0 0 1 .08-5.2 3.683 3.683 0 0 1 5.12 0l3.83 3.83 10.64-10.64c.69-.69 1.63-1.08 2.6-1.07 2.03 0 3.68 1.65 3.68 3.68 0 .97-.39 1.91-1.08 2.6Z" style="fill:#00b000;fill-rule:evenodd"/><path class="cls-2" d="M88.68 35.85c-.39-.07-.7-.36-.8-.75-.77-2.78-1.88-5.46-3.3-7.97-.23-.35-.23-.8 0-1.15l3.8-5.62-5.18-5.18L78.02 10l-5.62 3.8c-.33.22-.75.24-1.09.04-1.26-.72-2.57-1.36-3.91-1.92-1.32-.55-2.67-1.01-4.04-1.4-.41-.08-.73-.41-.81-.82l-1.28-6.65H46.61L45.33 9.7c-.07.39-.36.7-.75.8-1.4.38-2.77.86-4.11 1.41-1.32.55-2.61 1.18-3.86 1.88-.35.23-.8.23-1.15 0l-5.62-3.8-5.18 5.18-5.18 5.18 3.8 5.62c.22.33.24.75.04 1.09a34.874 34.874 0 0 0-3.31 7.96c-.08.41-.41.73-.82.81l-6.66 1.28v14.66l6.65 1.28c.39.07.7.36.8.75.77 2.78 1.88 5.46 3.3 7.97.23.35.23.8 0 1.15l-3.8 5.61 5.18 5.18 5.18 5.18 5.62-3.8c.33-.22.75-.24 1.09-.04 2.51 1.42 5.18 2.54 7.96 3.31.41.08.73.41.81.82l1.28 6.65h14.66l1.28-6.65c.07-.39.36-.7.75-.8 1.4-.38 2.77-.86 4.11-1.41 1.32-.55 2.61-1.18 3.86-1.88.35-.23.8-.23 1.15 0l5.62 3.8 5.18-5.18 5.18-5.18-3.8-5.62c-.22-.33-.24-.75-.04-1.09 1.43-2.51 2.54-5.18 3.31-7.96.08-.41.41-.73.82-.81l6.65-1.28V37.11l-6.65-1.28ZM53.94 67.11c-12.5 0-22.64-10.14-22.64-22.64 0-6.01 2.39-11.77 6.63-16.01 4.24-4.25 10-6.64 16.01-6.63 12.5 0 22.64 10.14 22.64 22.64S66.44 67.11 53.94 67.11Z"/><path d="M8.83 116.65V99.36H20.1v3.66h-7.29v3.16h6.1v3.53h-6.1V113h7.41v3.66H8.83Zm13.07 0 6.72-9.46 5.41-7.83h4.74l-6.55 8.94-5.53 8.35H21.9Zm12.23 0-5.51-8.35-6.57-8.94h4.74l5.44 7.83 6.7 9.46h-4.79Zm6.72 0V99.36h6.79c1.25 0 2.36.25 3.33.75.97.5 1.73 1.2 2.29 2.09.55.89.83 1.91.83 3.06s-.27 2.17-.8 3.06c-.53.89-1.28 1.59-2.24 2.1-.96.51-2.05.77-3.29.77h-2.94v5.46h-3.98Zm3.98-9.12h2.84c.71 0 1.28-.21 1.7-.63s.64-.97.64-1.64-.23-1.22-.68-1.64c-.45-.42-1.05-.63-1.79-.63h-2.72v4.55Zm11.19 9.12V99.36h11.27v3.66H60v3.16h6.1v3.53H60V113h7.41v3.66H56.02Zm14.5 0V99.36h6.79c1.25 0 2.36.24 3.33.73s1.73 1.16 2.29 2.03c.55.86.83 1.86.83 2.98s-.28 2.12-.84 2.99c-.56.87-1.33 1.55-2.31 2.04s-2.1.73-3.37.73H74.5v5.81h-3.98Zm3.98-9.46h2.69c.46 0 .87-.09 1.23-.27.36-.18.65-.43.85-.75.21-.32.31-.68.31-1.07 0-.61-.23-1.11-.68-1.51-.45-.4-1.05-.59-1.79-.59h-2.62v4.2Zm5.41 9.46-3.9-6.87 2.99-2.2 5.46 9.07h-4.55Zm10.13 0v-13.64H85v-3.66h14.03v3.66h-5.04v13.64h-3.95Z" style="fill:#00e200"/></g></svg>