<svg xmlns="http://www.w3.org/2000/svg" viewBox="0 0 106.01 121.06"><defs><style>.cls-1{fill:#fc0}.cls-2{fill:#f6a000}</style></defs><g id="Layer_1"><path class="cls-1" d="m30.63 44.58 6.11 9.58c.33.51.83.88 1.42 1.03l11 2.85c1.7.44 2.36 2.49 1.25 3.85l-7.22 8.78c-.39.47-.58 1.06-.54 1.67l.69 11.35c.11 1.75-1.64 3.02-3.27 2.38l-10.58-4.16a2.43 2.43 0 0 0-1.76 0l-10.58 4.16c-1.63.64-3.38-.63-3.27-2.38l.69-11.35c.04-.61-.16-1.2-.54-1.67l-7.22-8.78c-1.11-1.35-.45-3.41 1.25-3.85l11-2.85c.59-.15 1.09-.52 1.42-1.03l6.11-9.58c.94-1.48 3.1-1.48 4.05 0Z"/><path class="cls-2" d="M50.42 61.9c1.11-1.35.45-3.41-1.25-3.85l-11-2.85c-.59-.15-1.09-.52-1.42-1.03l-6.11-9.58c-.94-1.48-3.1-1.48-4.05 0l-1.72 2.69 5.52 8.65c.33.51.83.88 1.42 1.03l11 2.85c1.7.44 2.36 2.49 1.25 3.85l-7.22 8.78c-.39.47-.58 1.06-.54 1.67l.65 10.73 3.12 1.23c1.63.64 3.38-.63 3.27-2.38l-.69-11.35c-.04-.61.16-1.2.54-1.67l7.22-8.78Z"/><path class="cls-1" d="m55.15 4.33 6.11 9.58c.33.51.83.88 1.42 1.03l11 2.85c1.7.44 2.36 2.49 1.25 3.85l-7.22 8.78c-.39.47-.58 1.06-.54 1.67l.69 11.35c.11 1.75-1.64 3.02-3.27 2.38l-10.58-4.16a2.43 2.43 0 0 0-1.76 0l-10.58 4.16c-1.63.64-3.38-.63-3.27-2.38l.69-11.35c.04-.61-.16-1.2-.54-1.67l-7.22-8.78c-1.11-1.35-.45-3.41 1.25-3.85l11-2.85c.59-.15 1.09-.52 1.42-1.03l6.11-9.58c.94-1.48 3.1-1.48 4.05 0Z"/><path class="cls-2" d="M74.94 21.65c1.11-1.35.45-3.41-1.25-3.85l-11-2.85c-.59-.15-1.09-.52-1.42-1.03l-6.11-9.58c-.94-1.48-3.1-1.48-4.05 0l-1.72 2.69 5.52 8.65c.33.51.83.88 1.42 1.03l11 2.85c1.7.44 2.36 2.49 1.25 3.85l-7.22 8.78c-.39.47-.58 1.06-.54 1.67l.65 10.73 3.12 1.23c1.63.64 3.38-.63 3.27-2.38l-.69-11.35c-.04-.61.16-1.2.54-1.67l7.22-8.78Z"/><path class="cls-1" d="m79.42 44.58 6.11 9.58c.33.51.83.88 1.42 1.03l11 2.85c1.7.44 2.36 2.49 1.25 3.85l-7.22 8.78c-.39.47-.58 1.06-.54 1.67l.69 11.35c.11 1.75-1.64 3.02-3.27 2.38l-10.58-4.16a2.43 2.43 0 0 0-1.76 0l-10.58 4.16c-1.63.64-3.38-.63-3.27-2.38l.69-11.35c.04-.61-.16-1.2-.54-1.67l-7.22-8.78c-1.11-1.35-.45-3.41 1.25-3.85l11-2.85c.59-.15 1.09-.52 1.42-1.03l6.11-9.58c.94-1.48 3.1-1.48 4.05 0Z"/><path class="cls-2" d="M99.21 61.9c1.11-1.35.45-3.41-1.25-3.85l-11-2.85c-.59-.15-1.09-.52-1.42-1.03l-6.11-9.58c-.94-1.48-3.1-1.48-4.05 0l-1.72 2.69 5.52 8.65c.33.51.83.88 1.42 1.03l11 2.85c1.7.44 2.36 2.49 1.25 3.85l-7.22 8.78c-.39.47-.58 1.06-.54 1.67l.65 10.73 3.12 1.23c1.63.64 3.38-.63 3.27-2.38l-.69-11.35c-.04-.61.16-1.2.54-1.67l7.22-8.78Z"/><path class="cls-1" d="M29.41 116.86c-1.72 0-3.24-.37-4.56-1.11s-2.35-1.76-3.1-3.06-1.12-2.8-1.12-4.49.37-3.19 1.12-4.49c.75-1.3 1.78-2.32 3.1-3.06s2.84-1.11 4.56-1.11c1.07 0 2.04.16 2.91.47.87.31 1.63.74 2.28 1.28s1.2 1.16 1.63 1.87l-3.18 1.91c-.24-.38-.55-.73-.94-1.03-.39-.3-.82-.54-1.28-.71-.46-.17-.93-.25-1.41-.25-.94 0-1.78.22-2.5.65-.73.43-1.3 1.03-1.71 1.81-.41.77-.62 1.66-.62 2.67s.2 1.89.6 2.67c.4.77.97 1.38 1.72 1.83.75.45 1.62.67 2.61.67.75 0 1.41-.14 1.99-.43.57-.29 1.03-.69 1.36-1.2.33-.51.5-1.11.5-1.8l3.66-.62c0 1.63-.33 3-.98 4.13a6.453 6.453 0 0 1-2.68 2.55c-1.13.57-2.45.86-3.95.86Zm.12-6.51v-2.97h7.49v2.27l-2.15.69h-5.34Zm17.49 6.51c-1.72 0-3.25-.37-4.57-1.11a8.092 8.092 0 0 1-3.11-3.06c-.75-1.3-1.13-2.79-1.13-4.46s.38-3.19 1.13-4.49c.75-1.3 1.78-2.32 3.1-3.06 1.32-.74 2.83-1.11 4.54-1.11s3.22.37 4.53 1.11c1.32.74 2.35 1.76 3.1 3.06s1.12 2.8 1.12 4.49-.37 3.16-1.11 4.46a8.057 8.057 0 0 1-3.07 3.06c-1.31.74-2.82 1.11-4.52 1.11Zm0-3.54c.94 0 1.77-.22 2.49-.65.72-.43 1.28-1.03 1.67-1.81.4-.77.6-1.66.6-2.64s-.21-1.89-.62-2.67-.98-1.38-1.7-1.82c-.72-.44-1.55-.66-2.49-.66s-1.77.22-2.49.66c-.72.44-1.29 1.04-1.7 1.82s-.62 1.66-.62 2.64.21 1.89.62 2.67.99 1.38 1.72 1.81c.73.43 1.57.65 2.51.65Zm11.06 3.25V99.82h3.85v13.21h7.13v3.54H58.08Zm13.04 0V99.82h5.48c1.77 0 3.34.36 4.7 1.08 1.36.72 2.43 1.7 3.19 2.96.77 1.25 1.15 2.7 1.15 4.34s-.38 3.07-1.15 4.33c-.77 1.26-1.83 2.25-3.19 2.97-1.37.72-2.93 1.08-4.7 1.08h-5.48Zm3.85-3.63h1.63c.73 0 1.41-.11 2.03-.35.62-.23 1.16-.56 1.63-.98.46-.42.82-.92 1.08-1.51s.38-1.22.38-1.9-.13-1.32-.38-1.9-.61-1.08-1.08-1.51c-.46-.42-1-.75-1.63-.98-.62-.23-1.3-.35-2.03-.35h-1.63v9.48Z"/></g></svg>