<svg xmlns="http://www.w3.org/2000/svg" xmlns:xlink="http://www.w3.org/1999/xlink" viewBox="0 0 106.01 121.06"><defs><linearGradient id="a" x1="19.47" y1="80.38" x2="19.47" y2="114.06" gradientUnits="userSpaceOnUse"><stop offset="0" stop-color="#ff9f2c"/><stop offset="1" stop-color="#ff7900"/></linearGradient><linearGradient id="d" x1="35.9" y1="80.38" x2="35.9" y2="114.06" xlink:href="#a"/><linearGradient id="e" x1="51.54" y1="80.38" x2="51.54" y2="114.06" xlink:href="#a"/><linearGradient id="f" x1="68.9" y1="80.38" x2="68.9" y2="114.06" xlink:href="#a"/><linearGradient id="g" x1="86.38" y1="80.38" x2="86.38" y2="114.06" xlink:href="#a"/><linearGradient id="h" x1="15.85" y1="80.38" x2="15.85" y2="114.06" xlink:href="#a"/><linearGradient id="i" x1="34.25" y1="80.38" x2="34.25" y2="114.06" xlink:href="#a"/><linearGradient id="j" x1="49.64" y1="80.38" x2="49.64" y2="114.06" xlink:href="#a"/><linearGradient id="k" x1="63.52" y1="80.38" x2="63.52" y2="114.06" xlink:href="#a"/><linearGradient id="l" x1="77.3" y1="80.38" x2="77.3" y2="114.06" xlink:href="#a"/><linearGradient id="m" x1="92.03" y1="80.38" x2="92.03" y2="114.06" xlink:href="#a"/><linearGradient id="b" x1="38.54" y1="34.61" x2="68.78" y2="34.61" gradientUnits="userSpaceOnUse"><stop offset="0" stop-color="#ffc412"/><stop offset="1" stop-color="#ff8700"/></linearGradient><linearGradient id="o" x1="29.98" y1="39.88" x2="40.99" y2="39.88" xlink:href="#b"/><linearGradient id="p" x1="66.49" y1="39.88" x2="77.49" y2="39.88" xlink:href="#b"/><radialGradient id="c" data-name="New Gradient Swatch 7" cx="-15.29" cy="25.43" fx="-15.29" fy="25.43" r=".66" gradientUnits="userSpaceOnUse"><stop offset="0" stop-color="#ff9f2c"/><stop offset="1" stop-color="#ff7900"/></radialGradient><radialGradient id="n" data-name="New Gradient Swatch 7" cx="52.85" cy="47.74" fx="52.85" fy="47.74" r="23.67" gradientTransform="matrix(1 0 0 1.06 0 12.45)" xlink:href="#c"/></defs><path d="M20.03 96.77c-1.66 0-3.13-.36-4.39-1.07a7.845 7.845 0 0 1-2.99-2.95c-.72-1.25-1.08-2.69-1.08-4.33s.36-3.07 1.08-4.33a7.775 7.775 0 0 1 2.99-2.95c1.27-.72 2.73-1.07 4.39-1.07 1.03 0 1.96.15 2.8.45.84.3 1.57.71 2.2 1.23s1.15 1.12 1.57 1.8l-3.07 1.85c-.23-.37-.53-.7-.91-.99-.38-.29-.79-.52-1.23-.68-.45-.16-.9-.24-1.36-.24-.91 0-1.71.21-2.41.62-.7.41-1.25 1-1.65 1.74-.4.75-.6 1.6-.6 2.57s.19 1.83.58 2.57c.38.75.94 1.33 1.66 1.76.72.43 1.56.65 2.52.65.72 0 1.36-.14 1.91-.42.55-.28.99-.66 1.31-1.15.32-.49.48-1.07.48-1.73l3.53-.6c0 1.57-.32 2.9-.95 3.98s-1.49 1.9-2.58 2.46-2.36.83-3.81.83Zm.12-6.27v-2.86h7.22v2.19l-2.08.67h-5.14Z" style="fill:url(#a)"/><path d="M29.4 96.49V80.34h6.35c1.17 0 2.21.23 3.11.68.91.45 1.62 1.08 2.13 1.89.51.81.77 1.73.77 2.78s-.26 1.98-.78 2.79c-.52.82-1.24 1.45-2.16 1.9-.92.45-1.97.68-3.15.68h-2.56v5.42h-3.72Zm3.71-8.83h2.51c.43 0 .81-.08 1.15-.25.34-.17.6-.4.8-.7.19-.3.29-.63.29-1 0-.57-.21-1.04-.63-1.41-.42-.37-.98-.55-1.67-.55h-2.44v3.92Zm5.05 8.83-3.65-6.41 2.79-2.05 5.1 8.47h-4.24Z" style="fill:url(#d)"/><path d="m43.28 96.49 6.27-16.15h3.69L47.2 96.49h-3.92Zm2.95-3.07v-3.27h10.63v3.27H46.23Zm9.65 3.07-6.04-16.15h3.69l6.27 16.15h-3.92Z" style="fill:url(#e)"/><path d="M61.55 96.49V80.34h3.9l7.08 9.85v-9.85h3.72v16.15h-3.72l-7.26-10.13v10.13h-3.72Z" style="fill:url(#f)"/><path d="M79.38 96.49V80.34h5.28c1.71 0 3.22.35 4.53 1.04 1.31.69 2.34 1.64 3.08 2.85.74 1.21 1.11 2.6 1.11 4.19s-.37 2.96-1.11 4.18a7.736 7.736 0 0 1-3.08 2.86c-1.32.69-2.83 1.04-4.53 1.04h-5.28Zm3.72-3.5h1.57c.71 0 1.36-.11 1.96-.33.6-.22 1.12-.54 1.57-.95.45-.41.79-.89 1.04-1.45s.37-1.17.37-1.83-.12-1.27-.37-1.83-.59-1.05-1.04-1.45c-.44-.41-.97-.72-1.57-.95a5.64 5.64 0 0 0-1.96-.34H83.1v9.13Z" style="fill:url(#g)"/><path d="M7.47 117.64v-16.15h4.08l4.29 6.37 4.31-6.37h4.08v16.15h-3.72v-10.38l-4.66 6.83-4.68-6.83v10.38H7.45Z" style="fill:url(#h)"/><path d="m25.99 117.64 6.27-16.15h3.69l-6.04 16.15h-3.92Zm2.95-3.07v-3.27h10.63v3.27H28.94Zm9.65 3.07-6.04-16.15h3.69l6.28 16.15H38.6Z" style="fill:url(#i)"/><path d="M49.8 117.92a7.992 7.992 0 0 1-4.19-1.16c-.58-.36-1.05-.77-1.42-1.22-.37-.45-.6-.94-.69-1.46l3.67-1.04c.17.45.46.83.89 1.16.42.33.96.5 1.6.52.63.02 1.16-.13 1.58-.44.42-.31.63-.71.63-1.2 0-.38-.15-.72-.45-1.01s-.73-.52-1.28-.67l-2.28-.58c-.8-.2-1.5-.52-2.09-.95s-1.05-.96-1.38-1.58c-.33-.62-.5-1.33-.5-2.13 0-1.55.51-2.76 1.54-3.63 1.03-.87 2.48-1.3 4.36-1.3 1.03 0 1.93.14 2.7.43s1.43.7 1.97 1.26c.54.55.98 1.25 1.3 2.08l-3.64 1.08c-.12-.42-.39-.79-.8-1.13-.41-.34-.93-.51-1.58-.51s-1.15.15-1.51.44c-.36.29-.54.72-.54 1.27 0 .38.15.7.44.96.29.25.69.44 1.2.57l2.28.58c1.31.32 2.33.93 3.06 1.81.73.89 1.1 1.89 1.1 3.01 0 1.02-.23 1.88-.7 2.61-.47.72-1.15 1.28-2.04 1.67s-1.97.59-3.23.59Z" style="fill:url(#j)"/><path d="M61.68 117.64v-12.73h-4.71v-3.41h13.1v3.41h-4.7v12.73h-3.69Z" style="fill:url(#k)"/><path d="M71.99 117.64v-16.15h10.52v3.41h-6.8v2.95h5.7v3.3h-5.7v3.07h6.92v3.41H72Z" style="fill:url(#l)"/><path d="M85.53 117.64v-16.15h6.35c1.17 0 2.21.23 3.11.68.91.45 1.62 1.08 2.13 1.89.51.81.77 1.73.77 2.78s-.26 1.98-.78 2.79c-.52.82-1.24 1.45-2.16 1.9-.92.45-1.97.68-3.15.68h-2.56v5.42h-3.72Zm3.71-8.84h2.51c.43 0 .81-.08 1.15-.25.34-.17.6-.4.8-.7.19-.3.29-.63.29-1 0-.57-.21-1.04-.63-1.41-.42-.37-.98-.55-1.67-.55h-2.44v3.92Zm5.05 8.84-3.65-6.41 2.79-2.05 5.1 8.47h-4.24Z" style="fill:url(#m)"/><path d="m94.86 25.12-8.58 28.75H19.47l-7.01-28.75s8.91 7.58 11.22 6.53c2.31-1.03 5.48-14.72 5.48-14.72s7.19 7.36 11.05 7.25c3.85-.1 3-10.67 3-10.67L53.57 1.9l.09-.1.08.1L64.1 13.52s-.85 10.57 3 10.67c3.85.11 11.05-7.25 11.05-7.25s3.17 13.68 5.48 14.72c2.31 1.04 11.22-6.53 11.22-6.53Z" style="fill:url(#c)"/><path style="fill:url(#n)" d="M19.63 58.55h66.42v8.88H19.63z"/><path d="m67.55 33.66.86-1.05c.75-.92.3-2.3-.85-2.6l-7.44-1.93c-.4-.1-.74-.35-.96-.7l-4.13-6.48c-.16-.25-.37-.44-.61-.56-.24-.13-.5-.19-.76-.19-.39 0-.79.14-1.09.42-.1.09-.19.2-.27.33l-1.16 1.82-2.97 4.66c-.22.35-.56.6-.96.7l-7.44 1.93c-1.15.3-1.6 1.69-.85 2.6l4.89 5.93c.26.32.39.72.37 1.13l-.46 7.67a1.625 1.625 0 0 0 2.21 1.61l7.15-2.81c.38-.15.81-.15 1.19 0l5.04 1.98 2.11.83c1.1.43 2.29-.42 2.21-1.61s-.46-7.67-.46-7.67c-.02-.41.11-.81.37-1.13l4.02-4.89Z" style="fill:url(#b);stroke:#ec3000;stroke-miterlimit:10;stroke-width:.5px"/><path d="m40.54 39.53.31-.38c.27-.33.11-.84-.31-.95l-2.71-.7a.636.636 0 0 1-.35-.25l-1.5-2.36a.597.597 0 0 0-1 0l-1.5 2.36c-.08.13-.21.22-.35.25l-2.71.7c-.42.11-.58.61-.31.95l1.78 2.16c.09.12.14.26.13.41l-.17 2.79c-.03.43.4.74.81.59l2.6-1.02c.14-.05.29-.05.43 0l1.84.72.77.3c.4.16.83-.15.81-.59s-.17-2.79-.17-2.79c0-.15.04-.3.13-.41l1.46-1.78Z" style="stroke:#ec3000;stroke-miterlimit:10;stroke-width:.5px;fill:url(#o)"/><path d="M77.35 39.15c.07-.08.11-.18.13-.27a.585.585 0 0 0-.43-.67l-2.71-.7a.636.636 0 0 1-.35-.25l-1.5-2.36a.598.598 0 0 0-1 0l-.42.66-1.08 1.7c-.08.13-.21.22-.35.25l-2.71.7c-.42.11-.58.61-.31.95l1.78 2.16c.09.12.14.26.13.41l-.17 2.79c-.03.43.4.74.81.59l2.6-1.02c.14-.05.29-.05.43 0l1.84.72.77.3c.4.16.83-.15.81-.59s-.17-2.79-.17-2.79c0-.15.04-.3.13-.41l1.78-2.16Z" style="fill:url(#p);stroke:#ec3000;stroke-miterlimit:10;stroke-width:.5px"/></svg>