<svg xmlns="http://www.w3.org/2000/svg" xmlns:xlink="http://www.w3.org/1999/xlink" viewBox="0 0 106.01 121.06"><defs><radialGradient id="a" cx="53" cy="-8.64" fx="53" fy="-8.64" r="32.77" gradientTransform="matrix(1 0 0 1.23 0 48.69)" gradientUnits="userSpaceOnUse"><stop offset="0" stop-color="#00b2ff"/><stop offset="1" stop-color="#008af0"/></radialGradient><radialGradient id="b" cx="52.19" cy="57.43" fx="52.19" fy="57.43" r="23.67" gradientTransform="matrix(1 0 0 1.06 0 12.45)" xlink:href="#a"/></defs><path d="M4.62 107.36V90.2h4.34l4.56 6.77 4.58-6.77h4.34v17.16h-3.95V96.33l-4.95 7.26-4.98-7.26v11.03H4.61Zm19.68 0 6.67-17.16h3.92l-6.42 17.16H24.3Zm3.13-3.26v-3.48h11.3v3.48h-11.3Zm10.25 3.26L31.26 90.2h3.92l6.67 17.16h-4.17Zm11.92.3c-.83 0-1.63-.11-2.39-.33-.76-.22-1.45-.52-2.06-.91-.61-.38-1.11-.82-1.5-1.3-.39-.48-.64-1-.74-1.56l3.9-1.1c.18.47.49.89.95 1.24.45.35 1.02.53 1.7.55.67.02 1.23-.14 1.68-.46.45-.33.67-.75.67-1.27 0-.41-.16-.77-.48-1.08-.32-.31-.77-.55-1.36-.71l-2.43-.61c-.85-.21-1.59-.55-2.22-1.01a4.915 4.915 0 0 1-1.47-1.68c-.35-.66-.53-1.42-.53-2.27 0-1.65.55-2.94 1.64-3.86 1.1-.92 2.64-1.38 4.64-1.38 1.09 0 2.05.15 2.86.45.82.3 1.52.75 2.1 1.34.58.59 1.04 1.32 1.38 2.21l-3.87 1.15c-.13-.44-.41-.84-.85-1.2-.43-.36-.99-.54-1.68-.54s-1.22.16-1.6.46c-.38.31-.58.76-.58 1.35 0 .41.16.75.47 1.02s.74.47 1.28.6l2.43.61c1.39.35 2.47.99 3.25 1.93.78.94 1.17 2.01 1.17 3.2 0 1.08-.25 2-.75 2.77s-1.22 1.36-2.17 1.78c-.95.42-2.09.62-3.43.62Zm12.62-.3V93.83h-5V90.2h13.92v3.63h-5v13.53h-3.92Zm10.96 0V90.2h11.18v3.63h-7.23v3.14h6.05v3.51h-6.05v3.26h7.35v3.63h-11.3Zm14.39 0V90.2h6.74c1.24 0 2.34.24 3.31.72.97.48 1.72 1.15 2.27 2.01.55.86.82 1.84.82 2.95s-.28 2.1-.83 2.97c-.55.87-1.32 1.54-2.29 2.02s-2.09.72-3.35.72h-2.72v5.76h-3.95Zm3.94-9.38h2.67c.46 0 .87-.09 1.22-.27.36-.18.64-.43.85-.75.2-.32.31-.67.31-1.07 0-.6-.22-1.1-.67-1.49-.45-.39-1.04-.59-1.78-.59h-2.6v4.17Zm5.37 9.38-3.87-6.81 2.96-2.18 5.42 9h-4.51Z" style="fill:#00b0ff"/><path d="m94.2 35.38-8.58 28.75h-66.8l-7.01-28.75s8.91 7.58 11.22 6.53c2.31-1.03 5.48-14.72 5.48-14.72s7.19 7.36 11.05 7.25c3.85-.1 3-10.67 3-10.67l10.36-11.62.09-.1.08.1 10.36 11.62s-.85 10.57 3 10.67c3.85.11 11.05-7.25 11.05-7.25s3.17 13.68 5.48 14.72c2.31 1.04 11.22-6.53 11.22-6.53Z" style="fill:url(#a)"/><path style="fill:url(#b)" d="M18.98 68.81H85.4v8.88H18.98z"/></svg>