<svg xmlns="http://www.w3.org/2000/svg" viewBox="0 0 125.3 125.3"><path d="M113.3 125.3H12c-6.6 0-12-5.4-12-12V12C0 5.4 5.4 0 12 0h101.3c6.6 0 12 5.4 12 12v101.3c0 6.6-5.4 12-12 12z"/><path d="M115.2 116.5H10.1l3.6-23.9c0-4.7 3.1-8.9 7.6-10.3l17.8-5.5 2.4 5.2 14 27.9 4.2-27.1-3-9.6h11.8l-3 9.6 4.2 27.1 14-27.9 2.4-5.2 17.8 5.5c4.5 1.4 7.6 5.6 7.6 10.3l3.7 23.9z" fill="#fff"/><path d="M56.6 9.9 50 11.4 43.3 17v3.5H40l-3.3 7 1.4 3.5-4.5 7 3.1 10.6 3.4.1 1.6 7 5.1 3.5-1.5 3.5 4.9 3.5h6.6l3.3-7V13.6l-3.5-3.7zM52 29.3l4.5 1.8v5l-9.7-5.6 5.2-1.2zm4.6 24.3-5 2.4 4.9-13 .1 10.6zM54 26.4v-7l2.6-3.8v11.9L54 26.4zm-10.7-2.5h3.4v-5.3l4.8-4 1.7-.4-2.7 4.1v7.8l-6.9 1.7-2.8-1.1 1.3-2.9 1.2.1zM41 33l.9-1.3 9.8 5.6-14 2.6-.4-1.4L41 33zm3.7 20.7-1.3-5.8-.6-2.6-2.7-.1h-.9l-.6-2 15.3-2.8L48 56l-3.3-2.3zm9.8 9.2h-3.4l-1.7-1.3.4-.8 6.8-3.4v1.1l-2.1 4.4zm8.2-49.3v45.6l3.3 7h6.6l4.9-3.5-1.5-3.5 5.1-3.5 1.6-7 3.4-.1L89.2 38l-4.5-7 1.4-3.5-3.3-7h-3.3V17l-6.7-5.6-6.6-1.5-3.5 3.7zM76 30.5l-9.7 5.6v-5l4.5-1.8 5.2 1.2zm-9.7 23.1V43l4.9 13-4.9-2.4zm-.1-26.1V15.6l2.6 3.8v7l-2.6 1.1zm13.3-3.7h1.2l1.3 2.9-2.8 1.1-6.9-1.7v-7.8l-2.7-4.1 1.7.4 4.8 4v5.3l3.4-.1zm6 14.7-.4 1.4-14-2.6 9.8-5.6.9 1.3 3.7 5.5zM74.8 56l-5.9-15.6 15.3 2.8-.6 2h-.9l-2.7.1-.6 2.6-1.3 5.8-3.3 2.3zm-8.6 2.5v-1.1l6.8 3.4.4.8-1.7 1.3h-3.4l-2.1-4.4z" fill="#42a7de"/></svg>