<?xml version="1.0" standalone="no"?><!DOCTYPE svg PUBLIC "-//W3C//DTD SVG 1.1//EN" "http://www.w3.org/Graphics/SVG/1.1/DTD/svg11.dtd"><svg class="icon" width="200px" height="140.08px" viewBox="0 0 1462 1024" version="1.1" xmlns="http://www.w3.org/2000/svg"><path d="M0 0h1462.857143v1024H0z" fill="#D8231D" /><path d="M596.918857 249.124571c4.973714 4.096 9.289143 8.777143 13.677714 13.385143l13.604572 14.262857 34.889143-16.822857c-2.340571 6.217143-5.558857 11.849143-8.557715 17.554286-2.925714 5.778286-5.997714 11.410286-9.069714 17.334857l27.501714 28.598857c-1.316571-0.073143-2.194286-0.073143-2.925714-0.219428l-33.28-6.217143c-3.218286-0.585143-3.218286-0.512-4.754286 2.486857l-15.433142 29.110857-1.828572 3.072-1.170286-7.899428c-1.462857-9.728-2.779429-19.456-4.096-29.257143-0.365714-2.340571-0.365714-2.413714-2.779428-2.852572l-34.157714-6.217143a4.754286 4.754286 0 0 1-1.755429-0.658285c5.705143-3.218286 11.556571-5.851429 17.334857-8.704l17.627429-8.484572-4.827429-38.473143zM478.134857 162.523429l0.585143-0.512 35.547429 14.409142L539.721143 146.285714v4.096l-2.194286 32.329143c-0.146286 3.218286-0.146286 3.218286 2.779429 4.388572l31.158857 12.580571c0.731429 0.219429 1.316571 0.585143 2.56 1.097143l-2.925714 1.024-32.914286 8.045714c-2.779429 0.585143-2.779429 0.585143-2.998857 3.510857l-2.340572 35.254857-0.292571 1.755429-1.974857-3.072c-5.851429-9.362286-11.702857-18.797714-17.700572-28.16-1.609143-2.633143-1.682286-2.633143-4.827428-1.828571l-32.548572 7.972571-2.779428 0.512c8.630857-10.386286 16.969143-20.187429 25.453714-30.281143l-20.041143-32.987428zM417.645714 299.739429l-77.092571 56.832a339.309714 339.309714 0 0 0-1.901714 1.389714c-2.194286 1.682286-2.194286 1.682286-1.316572 4.461714l21.065143 64.365714 9.801143 29.915429 0.731428 2.413714-0.292571 0.219429h-0.292571a46.226286 46.226286 0 0 1-1.682286-1.170286l-81.92-59.977143a6.217143 6.217143 0 0 0-0.731429-0.438857l-0.658285-0.219428-84.187429 61.878857-0.585143-0.438857 31.963429-99.986286L146.285714 297.691429l0.219429-0.731429h100.278857c4.388571 0 3.657143 0.512 5.12-3.657143l30.72-91.648a8.996571 8.996571 0 0 1 1.609143-3.145143l31.963428 98.377143c5.778286 0.292571 11.556571 0.073143 17.261715 0.146286h86.674285l0.146286 0.658286-2.633143 2.048z m153.453715 241.810285l-32.621715 7.899429-3.072 0.877714-2.706285 39.716572-1.901715-2.706286-17.846857-28.379429c-1.682286-2.706286-1.755429-2.706286-4.827428-1.974857l-32.548572 8.045714-2.925714 0.512 25.526857-30.354285-20.041143-32.914286 0.365714-0.512c6.070857 2.048 11.849143 4.754286 17.773715 7.094857l17.993143 7.314286 24.941714-29.622857 0.512 0.219428V490.057143l-2.194286 32.256v1.170286c-0.292571 1.609143 0.438857 2.486857 1.901714 2.998857l13.458286 5.412571 18.724572 7.533714 2.56 1.097143-3.072 1.024zM665.673143 424.96l-25.746286 20.041143c-2.56 1.974857-2.56 1.974857-1.462857 4.973714l11.117714 31.085714a6.144 6.144 0 0 1 0.365715 3.072l-32.182858-22.308571-30.939428 23.990857a32.109714 32.109714 0 0 0-0.512-0.365714l10.898286-37.595429-31.890286-21.942857 0.219428-0.731428c12.8-0.658286 25.6-0.512 38.765715-1.243429l11.264-36.937143h0.512l1.170285 2.925714 10.971429 30.793143c0.950857 2.779429 0.950857 2.779429 3.876571 2.706286l32.621715-0.950857h3.072l0.219428 0.585143-2.340571 1.901714z" fill="#FFFA30" /></svg>