<?xml version="1.0" standalone="no"?><!DOCTYPE svg PUBLIC "-//W3C//DTD SVG 1.1//EN" "http://www.w3.org/Graphics/SVG/1.1/DTD/svg11.dtd"><svg class="icon" width="200px" height="133.68px" viewBox="0 0 1532 1024" version="1.1" xmlns="http://www.w3.org/2000/svg"><path d="M0 1024V0h1532.184799v1024z m1526.080477 0z m-1526.080477 0h1526.080477V6.104322H6.104322z" fill="#231F20" /><path d="M3.052161 3.052161h1526.080477v1017.132638h-1526.080477z" fill="#01247D" /><path d="M1529.132638 359.391952h-610.432191V3.052161h-305.216095v356.339791h-610.432191v305.216096h610.432191v355.576751h305.216095V664.608048h610.432191v-305.216096z" fill="#FFFFFF" /><path d="M1529.132638 903.439642L178.551416 3.052161H3.052161v117.508197l1349.818182 899.624441h176.262295v-116.745157z" fill="#FFFFFF" /><path d="M3.052161 903.439642L1354.396423 3.052161h174.736215v117.508197L179.314456 1020.184799H3.052161v-116.745157z" fill="#FFFFFF" /><path d="M1529.132638 422.724292h-673.764531V3.052161H677.579732v419.672131H3.052161v177.788376h674.527571v419.672131h177.788375v-419.672131h673.764531V422.724292z" fill="#CF142B" /><path d="M1529.132638 1017.895678v-80.882265l-409.752608-272.405365h-121.323398l531.076006 353.28763zM1529.132638 3.052161h-120.560358l-489.871833 325.818182v30.521609h75.540984L1529.132638 3.052161zM534.128167 664.608048L3.052161 1017.895678v2.289121h116.745156l493.687035-328.107303v-27.469448H534.128167zM3.052161 3.815201V83.934426l413.567809 275.457526h120.560358L3.052161 3.815201z" fill="#CF142B" /></svg>