<?xml version="1.0" standalone="no"?><!DOCTYPE svg PUBLIC "-//W3C//DTD SVG 1.1//EN" "http://www.w3.org/Graphics/SVG/1.1/DTD/svg11.dtd"><svg class="icon" width="200px" height="200.00px" viewBox="0 0 1024 1024" version="1.1" xmlns="http://www.w3.org/2000/svg"><path d="M1024 853.3248v-2.176 2.176z" fill="#231F20" /><path d="M0 625.7664h1024v227.5328H0z" fill="#138808" /><path d="M0 398.1824h1024v227.584H0z" fill="#FFFFFF" /><path d="M0 170.6752h1024v227.5328H0z" fill="#FF9933" /><path d="M595.2768 472.0384l5.3248 3.072-3.072 5.2992-5.3248-3.072zM602.8032 494.9504l4.352 4.352-4.352 4.3264-4.352-4.352zM604.0832 519.0656l3.0976 5.3504-5.3248 3.072-3.0976-5.3504zM599.1168 542.6432l1.5616 5.9648-5.888 1.5616-1.5872-5.9648z" fill="#000066" /><path d="M595.2768 472.0384l5.3248 3.072-3.072 5.2992-5.3248-3.072zM602.8032 494.9504l4.352 4.352-4.352 4.3264-4.352-4.352zM604.0832 519.0656l3.0976 5.3504-5.3248 3.072-3.0976-5.3504zM599.1168 542.6432l1.5616 5.9648-5.888 1.5616-1.5872-5.9648zM494.9248 421.1456l4.352-4.352 4.352 4.352-4.352 4.352zM519.0656 419.84l5.3248-3.072 3.072 5.3504-5.376 3.0464zM542.6432 424.8064l5.9392-1.5872 1.5872 5.888-5.9136 1.6128zM564.1216 435.7376h6.144v6.1184h-6.144zM582.0672 451.84l5.9648 1.5872-1.5872 5.9392-5.9648-1.6128zM582.0672 564.1472h6.1184v6.144h-6.1184zM572.16 582.0672l-1.536 5.9392-5.9904-1.5616 1.536-5.9392zM551.8848 595.2768l-3.072 5.2992-5.2992-3.072 3.0976-5.2992zM528.9984 602.752l-4.352 4.352-4.352-4.3776 4.352-4.352zM504.9344 604.0576l-5.3248 3.072-3.072-5.2992 5.3248-3.072zM481.3312 599.04l-5.9648 1.6128-1.5872-5.888 5.9648-1.6128zM453.6576 582.0672h6.144v6.1184h-6.144zM441.856 572.1088l-5.9648-1.6128 1.5872-5.9136 5.9648 1.5872zM428.6464 551.8848l-5.3248-3.072 3.072-5.3504 5.3248 3.072zM421.1712 528.9984l-4.352-4.352 4.3264-4.352 4.352 4.352zM419.8656 504.8832l-3.0976-5.376 5.3248-3.072 3.0976 5.376zM424.832 481.28l-1.6128-5.9392 5.9392-1.5872 1.6128 5.9136zM435.7376 453.632h6.144v6.144h-6.144zM451.84 441.8816l1.536-5.9392 5.9904 1.5616-1.536 5.9392zM472.064 428.672l3.072-5.376 5.3248 3.072-3.072 5.376zM510.0544 511.6928l2.5856-36.3008-2.816-54.656-2.56 54.7072zM510.0544 511.6928l11.904-34.4064 11.392-53.5296-16.5888 52.1728zM510.0544 511.6928l20.4032-30.1312 24.8832-48.768-29.5424 46.1056zM510.0544 511.6928l27.52-23.8336 36.6336-40.6784-40.448 36.8896zM510.0544 511.6928l32.7424-15.9232 45.9008-29.7728-48.5888 25.1392zM510.0544 511.6928l35.7376-6.912 52.0704-16.896-53.4528 11.6992zM510.0544 511.6928l36.3264 2.6112 54.656-2.8672-54.656-2.56zM510.0544 511.6928l34.432 11.904 53.5296 11.392-52.1728-16.5888zM510.0544 511.6928l30.1824 20.4032 48.7424 24.8576-46.08-29.5168zM510.0544 511.6928l23.8336 27.4944 40.6784 36.6592-36.864-40.4736zM510.0544 511.6928l15.9232 32.7424 29.824 45.9008-25.1392-48.5888zM510.0544 511.6928l6.912 35.7376 16.896 52.0448-11.7248-53.4272zM510.0544 511.6928l-2.56 36.3008 2.8672 54.6816 2.5088-54.6816zM510.0544 511.6928l-11.8528 34.4064-11.392 53.5552 16.5632-52.1984zM510.0544 511.6928l-20.352 30.1568-24.8832 48.7424 29.5424-46.1056zM510.0544 511.6928l-27.4432 23.8592-36.6592 40.6272L486.4 539.3408zM510.0544 511.6928l-32.7168 15.8976-45.9008 29.8496 48.6144-25.1648zM510.0544 511.6928l-35.712 6.8864-52.0448 16.896 53.4528-11.6736zM510.0544 511.6928l-36.2752-2.6112-54.6816 2.8928 54.7072 2.5088zM510.0544 511.6928l-34.3552-11.904-53.5552-11.3408 52.1472 16.5376zM510.0544 511.6928l-30.1312-20.4032-48.768-24.832 46.1056 29.5168zM510.0544 511.6928l-23.808-27.4944-40.704-36.6336 36.9152 40.4224zM510.0544 511.6928l-15.872-32.7424-29.824-45.8752 25.1392 48.5888zM510.0544 511.6928l-6.8608-35.7376-16.9472-52.0704 11.7248 53.4784z" fill="#000066" /><path d="M538.7008 412.2368a103.2448 103.2448 0 1 0-53.4528 199.5008 103.3216 103.3216 0 0 0 126.4896-73.0624 103.2192 103.2192 0 0 0-73.0368-126.4384z m-50.4064 188.1344a91.52 91.52 0 1 1 47.4368-176.7936 91.52 91.52 0 0 1-47.4368 176.7936z" fill="#000066" /><path d="M511.9744 511.9744m-18.4064 0a18.4064 18.4064 0 1 0 36.8128 0 18.4064 18.4064 0 1 0-36.8128 0Z" fill="#000066" /><path d="M542.6432 424.8064l5.9392-1.5872 1.5872 5.888-5.9136 1.6128zM564.1216 435.7376h6.144v6.1184h-6.144zM582.0672 451.84l5.9648 1.5872-1.5872 5.9392-5.9648-1.6128zM582.0672 564.1472h6.1184v6.144h-6.1184zM572.16 582.0672l-1.536 5.9392-5.9904-1.5616 1.536-5.9392zM551.8848 595.2768l-3.072 5.2992-5.2992-3.072 3.0976-5.2992zM528.9984 602.752l-4.352 4.352-4.352-4.3776 4.352-4.352zM504.9344 604.0576l-5.3248 3.072-3.072-5.2992 5.3248-3.072zM481.3312 599.04l-5.9648 1.6128-1.5872-5.888 5.9648-1.6128zM453.6576 582.0672h6.144v6.1184h-6.144zM441.856 572.1088l-5.9648-1.6128 1.5872-5.9136 5.9648 1.5872zM428.6464 551.8848l-5.3248-3.072 3.072-5.3504 5.3248 3.072zM421.1712 528.9984l-4.352-4.352 4.3264-4.352 4.352 4.352zM419.8656 504.8832l-3.0976-5.376 5.3248-3.072 3.0976 5.376zM424.832 481.28l-1.6128-5.9392 5.9392-1.5872 1.6128 5.9136zM435.7376 453.632h6.144v6.144h-6.144zM451.84 441.8816l1.536-5.9392 5.9904 1.5616-1.536 5.9392zM472.064 428.672l3.072-5.376 5.3248 3.072-3.072 5.376zM494.9248 421.1456l4.352-4.352 4.352 4.352-4.352 4.352z" fill="#000066" /></svg>