<?xml version="1.0" standalone="no"?><!DOCTYPE svg PUBLIC "-//W3C//DTD SVG 1.1//EN" "http://www.w3.org/Graphics/SVG/1.1/DTD/svg11.dtd"><svg class="icon" width="200px" height="200.00px" viewBox="0 0 1024 1024" version="1.1" xmlns="http://www.w3.org/2000/svg"><path d="M1024 853.3248v-2.176 2.176z" fill="#231F20" /><path d="M0 625.7664h1024v227.5328H0z" fill="#006600" /><path d="M0 398.1824h1024v227.584H0z" fill="#BB0000" /><path d="M0 170.6752h1024v227.5328H0z"  /><path d="M0 381.1328h1024v34.1248H0zM0 608.6656h1024v34.1248H0z" fill="#FFFFFF" /><path d="M606.592 381.3888c13.0048-3.3024 20.096-15.1552 27.2896-27.008 4.7616-7.8848 32.0512-80.4352 32.0512-80.4352s-52.0448 58.9056-56.8064 66.7648c-7.1424 11.8528-14.3104 23.6544-10.8032 36.1216L512 519.936l-86.4-143.0784c3.5072-12.4672-3.6608-24.2688-10.8032-36.1216-4.7616-7.8848-56.8064-66.7648-56.8064-66.7648s27.2896 72.5248 32.1024 80.4352c7.1424 11.8528 14.2592 23.7056 27.2384 27.008l89.088 147.6608-130.56 216.3968 8.2432 4.5568L512 538.1632l127.8464 211.8144 8.2432-4.5568-130.6368-216.3456 89.1392-147.6864z" fill="#FFFFFF" /><path d="M606.592 381.3888l0.1024 0.4608c13.2608-3.3792 20.4032-15.3856 27.5968-27.2128 4.8128-8.0128 32.1024-80.4864 32.1024-80.512L665.6 273.6384c0 0.0512-51.9936 58.8544-56.8576 66.8416-5.8624 9.728-11.8016 19.456-11.8016 29.6704l0.9472 6.8352 0.4608-0.128-0.4096-0.256L512 519.0144l-85.9904-142.4128-0.4096 0.256 0.4608 0.128 0.9472-6.8352c-0.0512-10.2144-5.9392-19.968-11.8016-29.6704-4.8384-7.9872-56.8576-66.7904-56.8576-66.8416l-0.7936 0.4864c0 0.0256 27.264 72.448 32.1536 80.512 7.1424 11.8272 14.3104 23.8336 27.5456 27.2128l0.1024-0.4608-0.4096 0.256 88.96 147.4048-130.6624 216.576 8.6528 4.7872 0.4096 0.2304L512 539.0592l127.6416 211.5584 8.6528-4.7872 0.4608-0.2304-130.7392-216.5248 89.0112-147.456-0.4352-0.2304 0.1024 0.4608-0.1024-0.4608-0.4096-0.256-89.2928 147.9424 130.56 216.1664-7.4496 4.1216-128-212.1216-128 212.1216-7.4496-4.096 130.4576-216.2176-89.344-148.0704-0.2048-0.0256c-12.7488-3.2256-19.8144-14.9248-26.9568-26.8032-4.7616-7.7568-32-80.2816-32.0512-80.3584l-0.4608 0.1792-0.3584 0.3072c0.0512 0.0768 52.096 58.9824 56.7552 66.7136 5.8368 9.7024 11.648 19.328 11.648 29.184l-0.896 6.5792-0.0512 0.2048L512 520.8576l86.8608-143.9232-0.0512-0.2048-0.896-6.5792c0-9.856 5.7856-19.4816 11.648-29.184 4.6592-7.7568 56.704-66.6624 56.7552-66.7136l-0.3584-0.3072-0.4608-0.1792c0 0.1024-27.2896 72.6272-32 80.3584-7.1936 11.8784-14.2592 23.5776-27.008 26.8032l-0.2048 0.0512-0.1024 0.1536 0.4096 0.256z"  /><path d="M602.4448 402.6624c-14.2592-36.4544-61.9008-109.3632-90.4448-109.3632-28.5952 0-76.1856 72.9088-90.496 109.3632 14.3104 36.4288 23.808 72.8832 23.808 109.312 0 36.4032-9.4976 72.8832-23.808 109.312 14.3104 36.4544 61.9008 109.3632 90.496 109.3632 28.544 0 76.2112-72.9088 90.4448-109.3632-14.2592-36.4288-23.808-72.9088-23.808-109.312 0.0256-36.4288 9.5744-72.8832 23.808-109.312z" fill="#BB0000" /><path d="M602.4448 402.6624c-29.1072 74.2144-29.1072 144.384 0 218.624 29.1584-74.1376 29.1584-144.4864 0-218.624M421.504 402.6624c-29.1584 74.112-29.1584 144.4864 0 218.624 29.1072-74.24 29.1072-144.4096 0-218.624"  /><path d="M512 484.6336c25.7024 0 25.7024 54.656 0 54.656s-25.7024-54.656 0-54.656" fill="#FFFFFF" /><path d="M516.7616 538.624c27.1616 56.1664 27.1616 135.1168 0 191.3344V538.624M507.2128 485.3248c-27.1104-56.192-27.1616-135.1424 0-191.3344v191.3344M507.2128 538.624c-27.1104 56.1664-27.1616 135.1168 0 191.3344V538.624M516.7616 485.3248c27.1616-56.192 27.1616-135.1424 0-191.3344v191.3344" fill="#FFFFFF" /></svg>