<?xml version="1.0" standalone="no"?><!DOCTYPE svg PUBLIC "-//W3C//DTD SVG 1.1//EN" "http://www.w3.org/Graphics/SVG/1.1/DTD/svg11.dtd"><svg class="icon" width="200px" height="200.00px" viewBox="0 0 1024 1024" version="1.1" xmlns="http://www.w3.org/2000/svg"><path d="M1024 853.3248v-2.1504 2.1504z" fill="#231F20" /><path d="M0 643.2256h1024v52.5568H0z" fill="#FFFFFF" /><path d="M0 590.72h1024v52.5056H0zM0 800.768h1024v52.5056H0z" fill="#DC241F" /><path d="M0 538.1888h1024v52.5568H0z" fill="#FFFFFF" /><path d="M0 695.7824h1024v52.5056H0z" fill="#DC241F" /><path d="M0 748.288h1024v52.5056H0zM0 328.1152h1024v52.5568H0z" fill="#FFFFFF" /><path d="M0 485.6832h1024v52.5056H0z" fill="#DC241F" /><path d="M0 223.0784h1024v52.5568H0z" fill="#FFFFFF" /><path d="M0 275.6352h1024v52.5056H0zM0 170.6752h1024v52.4032H0z" fill="#DC241F" /><path d="M0 433.1776h1024v52.5056H0z" fill="#FFFFFF" /><path d="M0 380.672h1024v52.5056H0z" fill="#DC241F" /><path d="M0 170.6752h512v420.3008H0z" fill="#0035AD" /><path d="M230.1184 498.0224a117.2224 117.2224 0 0 1 0-234.3936c18.9952 0 36.8896 4.6592 52.7616 12.6464a132.0192 132.0192 0 0 0-81.4848-28.1088 132.6848 132.6848 0 1 0 0 265.3184c30.72 0 58.9568-10.496 81.4592-28.1088a116.224 116.224 0 0 1-52.736 12.6464z" fill="#FFD100" /><path d="M334.7968 269.568l9.4464 69.8112 38.8608-58.8032-21.8112 66.9952 60.4928-36.1472-48.6912 50.944 70.144-6.2976-65.9456 24.7552 65.9456 24.7552-70.144-6.2976 48.6912 50.8928-60.4928-36.096 21.8112 66.9952-38.8608-58.8032-9.4464 69.8112-9.4464-69.8112-38.8608 58.8032 21.8112-66.9952-60.4928 36.096 48.6912-50.8928-70.1696 6.2976 65.9712-24.7552-65.9712-24.7552 70.1696 6.2976-48.6912-50.944 60.4928 36.1472-21.8112-66.9952 38.8608 58.8032z" fill="#FFD100" /></svg>